<svg viewBox="0 0 975 170" xmlns="http://www.w3.org/2000/svg" xmlns:svg="http://www.w3.org/2000/svg" version="1.1" xml:space="preserve">
  <metadata id="metadata8">image/svg+xml</metadata>
  <defs id="defs6">
   <clipPath clipPathUnits="userSpaceOnUse" id="clipPath22">
    <path d="m-595.39,1557.53l1920,0l0,-1080l-1920,0l0,1080z" id="path20"/>
   </clipPath>
  </defs>
  <g class="layer">
   <title>Layer 1</title>
   <g id="g10" transform="matrix(1.33333 0 0 -1.33333 0 1440)">
    <g id="g12" transform="translate(595.493 602.476)">
     <path d="m-595.39,477.53l-0.01,-9.1l80.34,-46.48l-56.77,-32.71l-15.77,-9.08l0.01,9.1l56.77,32.71l-64.59,37.37l-0.02,-27.3l17.34,-10.03l-17.36,-10l0,-9.1l33.12,19.09l-25.22,14.58l0.01,9.1l40.97,-23.7l-48.89,-28.17l-0.03,-27.29l96.19,55.42l-96.09,55.59z" fill="#5a47fb" fill-rule="nonzero" id="path14"/>
    </g>
    <g id="g16">
     <g clip-path="url(#clipPath22)" id="g18">
      <g id="g24" transform="translate(738.197 519.325)">
       <path d="m-595.39,477.53c2.49,0 4.75,0.33 6.78,0.99c2.02,0.66 3.62,1.71 4.78,3.16c1.17,1.44 1.76,3.25 1.76,5.43c0,2.49 -0.7,4.38 -2.11,5.66c-1.4,1.29 -3.21,2.18 -5.43,2.69c-2.22,0.51 -4.54,0.76 -6.95,0.76l-9.69,0l0,-18.69l10.86,0zm-0.58,35.04c3.34,0 5.82,1.01 7.41,3.04c1.6,2.02 2.4,4.32 2.4,6.89c0,2.96 -1,5.18 -2.98,6.66c-1.99,1.48 -4.66,2.22 -8,2.22l-9.11,0l0,-18.81l10.28,0zm-1.99,35.16c8.95,0 16.08,-1.81 21.38,-5.43c5.29,-3.62 7.94,-9.01 7.94,-16.18c0,-5.29 -1.31,-9.71 -3.91,-13.25c-2.61,-3.55 -6.16,-6.2 -10.63,-7.95c-4.48,-1.75 -9.6,-2.63 -15.36,-2.63l-2.69,9.12c7.08,0 13.37,-0.98 18.86,-2.93c5.49,-1.94 9.84,-4.73 13.03,-8.35c3.19,-3.62 4.79,-7.96 4.79,-13.02c0,-4.67 -0.84,-8.63 -2.51,-11.86c-1.68,-3.23 -3.94,-5.84 -6.78,-7.82c-2.84,-1.99 -6.05,-3.43 -9.64,-4.33c-3.58,-0.89 -7.28,-1.34 -11.09,-1.34l-28.62,0l0,85.97l25.23,0z" fill="#000000" fill-rule="nonzero" id="path26"/>
      </g>
      <g id="g28" transform="translate(967.675 503.596)">
       <path d="m-595.39,477.53l0,87.72l5.1,0l40.17,-66.42l-6.84,1.61l40.72,64.81l4.55,0l0,-87.72l-16.01,0l0,50.28l0.99,-8.59l-27.49,-40.55l-0.22,0l-28.27,40.55l2.76,7.9l0,-49.59l-15.46,0z" fill="#000000" fill-rule="nonzero" id="path30"/>
      </g>
      <g id="g32" transform="translate(1093.66 534.667)">
       <path d="m-595.39,477.53c0,-2.73 0.82,-5.34 2.45,-7.83c1.64,-2.49 3.8,-4.51 6.49,-6.07c2.68,-1.56 5.62,-2.34 8.82,-2.34c3.5,0 6.61,0.78 9.34,2.34c2.73,1.56 4.89,3.58 6.48,6.07c1.6,2.49 2.4,5.1 2.4,7.83l0,54.2l16.7,0l0,-54.55c0,-6.31 -1.56,-11.9 -4.67,-16.76c-3.12,-4.87 -7.32,-8.69 -12.62,-11.45c-5.29,-2.76 -11.17,-4.15 -17.64,-4.15c-6.38,0 -12.2,1.39 -17.46,4.15c-5.25,2.76 -9.44,6.58 -12.55,11.45c-3.12,4.86 -4.68,10.45 -4.68,16.76l0,54.55l16.94,0l0,-54.2z" fill="#000000" fill-rule="nonzero" id="path34"/>
      </g>
      <g id="g36" transform="translate(1186.53 521.662)">
       <path d="m-595.39,477.53l10.05,0c4.28,0 8.17,0.56 11.68,1.69c3.5,1.13 6.52,2.79 9.05,4.97c2.53,2.18 4.48,4.92 5.84,8.23c1.36,3.31 2.04,7.11 2.04,11.39c0,5.61 -0.91,10.18 -2.74,13.73c-1.83,3.54 -4.09,6.29 -6.78,8.23c-2.68,1.95 -5.43,3.29 -8.23,4.03c-2.8,0.74 -5.18,1.11 -7.13,1.11l-13.78,0l0,-53.38zm-16.94,-16.35l0,85.97l25.7,0c8.65,0 16,-1.29 22.08,-3.86c6.07,-2.57 10.96,-5.99 14.66,-10.27c3.69,-4.29 6.4,-9.08 8.11,-14.37c1.72,-5.3 2.57,-10.63 2.57,-16.01c0,-6.38 -1.15,-12.13 -3.44,-17.22c-2.3,-5.11 -5.43,-9.47 -9.4,-13.09c-3.98,-3.62 -8.57,-6.38 -13.79,-8.29c-5.22,-1.91 -10.74,-2.86 -16.58,-2.86l-29.91,0z" fill="#000000" fill-rule="nonzero" id="path38"/>
      </g>
      <g id="g40" transform="translate(1271.75 534.686)">
       <path d="m-595.39,477.53l25.81,0l5.96,-14.25l-37.03,0l5.26,14.25zm-26.52,-31.07l38.78,88.36l0.94,0l38.78,-88.36l-19.62,0l-24.77,62.14l12.27,8.32l-29.67,-70.46l-16.71,0z" fill="#000000" fill-rule="nonzero" id="path42"/>
      </g>
      <g id="g44" transform="translate(840.214 591.281)">
       <path d="m-595.39,477.53l-47.26,0l0,-85.97l56.94,0l-8.46,16.2l-31.55,0.15l0,18.57l29.74,0l0,16.36l-29.74,0l0,18.34l38.77,0.17" fill="#000000" fill-rule="nonzero" id="path46"/>
      </g>
      <g id="g48" transform="translate(921.633 536.69)">
       <path d="m-595.39,477.53l21.34,-33.31l-19.82,0l-21.81,32.84l20.29,0.47zm-15.95,10.56c2.58,0 4.73,0.42 6.45,1.29c1.72,0.86 3.07,1.95 4.05,3.28c0.97,1.33 1.68,2.72 2.11,4.16c0.43,1.45 0.64,2.8 0.64,4.05c0,0.94 -0.13,2.13 -0.41,3.58c-0.27,1.44 -0.84,2.91 -1.7,4.39c-0.86,1.49 -2.17,2.74 -3.93,3.76c-1.76,1.01 -4.12,1.52 -7.09,1.52l-12.2,0l0,-26.03l12.08,0zm-2.93,42.45c5.39,0 10.2,-0.69 14.42,-2.05c4.23,-1.37 7.76,-3.33 10.62,-5.87c2.85,-2.54 5.02,-5.59 6.51,-9.14c1.48,-3.56 2.22,-7.57 2.22,-12.02c0,-3.52 -0.52,-7.04 -1.58,-10.56c-1.05,-3.52 -2.78,-6.73 -5.16,-9.62c-2.39,-2.89 -5.53,-5.22 -9.44,-6.97c-3.91,-1.76 -8.76,-2.64 -14.54,-2.64l-12.2,0l0,-27.45l-17,0l0,86.32l26.15,0z" fill="#000000" fill-rule="nonzero" id="path50"/>
      </g>
      <path d="m549.71,969.12l2.15,0l0,-13.66l-2.15,0l0,13.66z" fill="#5a37fb" fill-rule="nonzero" id="path52"/>
      <g id="g54" transform="translate(1161.51 487.592)">
       <path d="m-595.39,477.53l0,-9.66l-2.15,0l0,13.66l1.77,0l7.73,-9.87l0,9.85l2.17,0l0,-13.64l-1.88,0l-7.64,9.66z" fill="#5a37fb" fill-rule="nonzero" id="path56"/>
      </g>
      <g id="g58" transform="translate(1191.22 488.38)">
       <path d="m-595.39,477.53c-0.13,0.14 -0.31,0.29 -0.56,0.45c-0.24,0.16 -0.53,0.31 -0.86,0.46c-0.34,0.14 -0.7,0.25 -1.08,0.34c-0.39,0.09 -0.78,0.14 -1.19,0.14c-0.9,0 -1.57,-0.17 -2.01,-0.5c-0.43,-0.33 -0.65,-0.79 -0.65,-1.38c0,-0.44 0.12,-0.78 0.37,-1.03c0.24,-0.25 0.61,-0.46 1.11,-0.62c0.5,-0.17 1.13,-0.35 1.89,-0.54c0.92,-0.22 1.72,-0.48 2.4,-0.78c0.68,-0.3 1.2,-0.7 1.56,-1.2c0.36,-0.49 0.54,-1.15 0.54,-1.97c0,-0.69 -0.13,-1.29 -0.38,-1.79c-0.26,-0.49 -0.62,-0.9 -1.08,-1.21c-0.46,-0.32 -1,-0.55 -1.6,-0.69c-0.6,-0.15 -1.25,-0.22 -1.94,-0.22c-0.68,0 -1.36,0.07 -2.03,0.21c-0.68,0.14 -1.32,0.35 -1.93,0.62c-0.61,0.28 -1.17,0.62 -1.68,1.01l0.98,1.85c0.17,-0.17 0.41,-0.35 0.72,-0.55c0.32,-0.2 0.68,-0.39 1.1,-0.57c0.42,-0.18 0.87,-0.33 1.37,-0.45c0.49,-0.12 0.99,-0.18 1.51,-0.18c0.85,0 1.51,0.15 1.97,0.45c0.45,0.3 0.68,0.73 0.68,1.29c0,0.46 -0.15,0.83 -0.44,1.1c-0.3,0.28 -0.73,0.51 -1.29,0.7c-0.57,0.2 -1.24,0.39 -2.02,0.58c-0.9,0.24 -1.65,0.51 -2.25,0.79c-0.61,0.29 -1.06,0.66 -1.36,1.12c-0.3,0.45 -0.45,1.03 -0.45,1.73c0,0.9 0.22,1.66 0.65,2.28c0.44,0.62 1.03,1.09 1.78,1.4c0.75,0.31 1.6,0.47 2.53,0.47c0.62,0 1.2,-0.07 1.75,-0.2c0.56,-0.14 1.07,-0.32 1.55,-0.55c0.48,-0.23 0.92,-0.49 1.32,-0.79l-0.98,-1.77z" fill="#5a37fb" fill-rule="nonzero" id="path60"/>
      </g>
      <g id="g62" transform="translate(1209.61 477.836)">
       <path d="m-595.39,477.53c-1.09,0 -2.01,0.19 -2.76,0.56c-0.75,0.37 -1.35,0.88 -1.81,1.52c-0.46,0.64 -0.79,1.37 -1,2.19c-0.21,0.82 -0.32,1.68 -0.32,2.56l0,6.93l2.16,0l0,-6.93c0,-0.63 0.06,-1.23 0.19,-1.82c0.13,-0.58 0.33,-1.1 0.61,-1.57c0.29,-0.46 0.67,-0.82 1.15,-1.09c0.48,-0.27 1.07,-0.41 1.78,-0.41c0.72,0 1.32,0.14 1.8,0.42c0.48,0.27 0.86,0.64 1.13,1.11c0.28,0.47 0.48,0.99 0.61,1.57c0.13,0.58 0.19,1.17 0.19,1.79l0,6.93l2.18,0l0,-6.93c0,-0.94 -0.12,-1.82 -0.34,-2.64c-0.22,-0.83 -0.57,-1.56 -1.04,-2.18c-0.47,-0.62 -1.07,-1.11 -1.82,-1.47c-0.74,-0.36 -1.65,-0.54 -2.71,-0.54" fill="#5a37fb" fill-rule="nonzero" id="path64"/>
      </g>
      <g id="g66" transform="translate(1229.57 484.59)">
       <path d="m-595.39,477.53l3.77,0c0.4,0 0.75,0.12 1.06,0.35c0.31,0.23 0.55,0.54 0.73,0.93c0.18,0.39 0.27,0.82 0.27,1.28c0,0.47 -0.1,0.9 -0.31,1.28c-0.2,0.38 -0.47,0.68 -0.8,0.91c-0.32,0.23 -0.68,0.35 -1.06,0.35l-3.66,0l0,-5.1zm-2.15,-6.66l0,13.66l5.94,0c0.62,0 1.18,-0.12 1.69,-0.38c0.52,-0.26 0.96,-0.6 1.34,-1.02c0.38,-0.42 0.67,-0.9 0.89,-1.42c0.21,-0.53 0.31,-1.07 0.31,-1.62c0,-0.6 -0.11,-1.18 -0.32,-1.73c-0.22,-0.55 -0.53,-1.03 -0.94,-1.43c-0.4,-0.39 -0.87,-0.68 -1.41,-0.86l3.21,-5.2l-2.42,0l-2.97,4.76l-3.17,0l0,-4.76l-2.15,0z" fill="#5a37fb" fill-rule="nonzero" id="path68"/>
      </g>
      <g id="g70" transform="translate(1260 489.689)">
       <path d="m-595.39,477.53l-4.54,0l0,-11.76l-2.18,0l0,11.76l-4.55,0l0,1.9l11.27,0l0,-1.9z" fill="#5a37fb" fill-rule="nonzero" id="path72"/>
      </g>
      <g id="g74" transform="translate(1280.23 479.838)">
       <path d="m-595.39,477.53l0,-1.9l-9.37,0l0,13.66l9.2,0l0,-1.91l-7.05,0l0,-3.89l6.1,0l0,-1.78l-6.1,0l0,-4.18l7.22,0z" fill="#5a37fb" fill-rule="nonzero" id="path76"/>
      </g>
      <g id="g78" transform="translate(1290.37 484.879)">
       <path d="m-595.39,477.53c0,0.83 0.15,1.65 0.44,2.45c0.3,0.8 0.73,1.54 1.3,2.2c0.57,0.66 1.27,1.18 2.09,1.57c0.82,0.4 1.75,0.59 2.79,0.59c1.23,0 2.3,-0.28 3.19,-0.84c0.9,-0.55 1.57,-1.27 2,-2.14l-1.69,-1.14c-0.26,0.55 -0.58,0.99 -0.97,1.31c-0.39,0.32 -0.81,0.55 -1.27,0.68c-0.46,0.12 -0.9,0.19 -1.34,0.19c-0.72,0 -1.34,-0.15 -1.88,-0.44c-0.54,-0.28 -0.99,-0.67 -1.36,-1.14c-0.37,-0.47 -0.64,-1.01 -0.83,-1.6c-0.18,-0.59 -0.28,-1.18 -0.28,-1.77c0,-0.65 0.11,-1.28 0.33,-1.89c0.22,-0.61 0.52,-1.15 0.91,-1.62c0.4,-0.47 0.86,-0.84 1.4,-1.11c0.54,-0.27 1.13,-0.4 1.77,-0.4c0.44,0 0.89,0.08 1.37,0.23c0.47,0.16 0.91,0.4 1.31,0.72c0.41,0.33 0.73,0.76 0.96,1.3l1.78,-1.02c-0.28,-0.68 -0.71,-1.26 -1.31,-1.73c-0.6,-0.47 -1.27,-0.83 -2,-1.08c-0.74,-0.24 -1.47,-0.36 -2.19,-0.36c-0.96,0 -1.84,0.2 -2.63,0.6c-0.8,0.41 -1.49,0.95 -2.06,1.62c-0.58,0.67 -1.03,1.43 -1.35,2.27c-0.32,0.84 -0.48,1.69 -0.48,2.55" fill="#5a37fb" fill-rule="nonzero" id="path80"/>
      </g>
      <g id="g82" transform="translate(1324.63 491.594)">
       <path d="m-595.39,477.53l0,-13.66l-2.17,0l0,6.02l-6.89,0l0,-6.02l-2.16,0l0,13.66l2.16,0l0,-5.72l6.89,0l0,5.72l2.17,0z" fill="#5a37fb" fill-rule="nonzero" id="path84"/>
      </g>
     </g>
    </g>
   </g>
  </g>
 </svg>